<svg width="1129" height="323" viewBox="0 0 1129 323" fill="none" xmlns="http://www.w3.org/2000/svg">
<path d="M151.662 207.792C144.75 207.792 138.649 206.555 133.358 204.08C128.067 201.605 123.929 198.064 120.942 193.456C117.955 188.848 116.462 183.301 116.462 176.816V173.232H133.102V176.816C133.102 182.192 134.766 186.245 138.094 188.976C141.422 191.621 145.945 192.944 151.662 192.944C157.465 192.944 161.774 191.792 164.59 189.488C167.491 187.184 168.942 184.24 168.942 180.656C168.942 178.181 168.217 176.176 166.766 174.64C165.401 173.104 163.353 171.867 160.622 170.928C157.977 169.904 154.734 168.965 150.894 168.112L147.95 167.472C141.806 166.107 136.515 164.4 132.078 162.352C127.726 160.219 124.355 157.445 121.966 154.032C119.662 150.619 118.51 146.181 118.51 140.72C118.51 135.259 119.79 130.608 122.35 126.768C124.995 122.843 128.665 119.856 133.358 117.808C138.137 115.675 143.726 114.608 150.126 114.608C156.526 114.608 162.201 115.717 167.15 117.936C172.185 120.069 176.11 123.312 178.926 127.664C181.827 131.931 183.278 137.307 183.278 143.792V147.632H166.638V143.792C166.638 140.379 165.955 137.648 164.59 135.6C163.31 133.467 161.433 131.931 158.958 130.992C156.483 129.968 153.539 129.456 150.126 129.456C145.006 129.456 141.209 130.437 138.734 132.4C136.345 134.277 135.15 136.88 135.15 140.208C135.15 142.427 135.705 144.304 136.814 145.84C138.009 147.376 139.758 148.656 142.062 149.68C144.366 150.704 147.31 151.6 150.894 152.368L153.838 153.008C160.238 154.373 165.785 156.123 170.478 158.256C175.257 160.389 178.969 163.205 181.614 166.704C184.259 170.203 185.582 174.683 185.582 180.144C185.582 185.605 184.174 190.427 181.358 194.608C178.627 198.704 174.702 201.947 169.582 204.336C164.547 206.64 158.574 207.792 151.662 207.792ZM260.903 207.792C253.564 207.792 247.25 206.469 241.959 203.824C236.754 201.093 232.743 197.253 229.927 192.304C227.196 187.269 225.831 181.339 225.831 174.512V116.4H242.727V175.024C242.727 180.485 244.263 184.795 247.335 187.952C250.492 191.109 255.015 192.688 260.903 192.688C266.791 192.688 271.271 191.109 274.343 187.952C277.5 184.795 279.079 180.485 279.079 175.024V116.4H295.975V174.512C295.975 181.339 294.567 187.269 291.751 192.304C289.02 197.253 285.01 201.093 279.719 203.824C274.514 206.469 268.242 207.792 260.903 207.792ZM340.503 206V116.4H377.367C382.999 116.4 387.948 117.552 392.215 119.856C396.567 122.075 399.938 125.232 402.327 129.328C404.802 133.424 406.039 138.288 406.039 143.92V145.712C406.039 151.259 404.759 156.123 402.199 160.304C399.724 164.4 396.311 167.6 391.959 169.904C387.692 172.123 382.828 173.232 377.367 173.232H357.399V206H340.503ZM357.399 157.872H375.703C379.714 157.872 382.956 156.763 385.431 154.544C387.906 152.325 389.143 149.296 389.143 145.456V144.176C389.143 140.336 387.906 137.307 385.431 135.088C382.956 132.869 379.714 131.76 375.703 131.76H357.399V157.872ZM445.913 206V116.4H503.513V131.76H462.809V153.136H499.929V168.496H462.809V190.64H504.281V206H445.913ZM544.948 206V116.4H583.86C589.492 116.4 594.399 117.381 598.58 119.344C602.761 121.307 606.004 124.08 608.308 127.664C610.612 131.248 611.764 135.472 611.764 140.336V141.872C611.764 147.248 610.484 151.6 607.924 154.928C605.364 158.256 602.207 160.688 598.452 162.224V164.528C601.865 164.699 604.511 165.893 606.388 168.112C608.265 170.245 609.204 173.104 609.204 176.688V206H592.308V179.12C592.308 177.072 591.753 175.408 590.644 174.128C589.62 172.848 587.871 172.208 585.396 172.208H561.844V206H544.948ZM561.844 156.848H582.068C586.079 156.848 589.193 155.781 591.412 153.648C593.716 151.429 594.868 148.528 594.868 144.944V143.664C594.868 140.08 593.759 137.221 591.54 135.088C589.321 132.869 586.164 131.76 582.068 131.76H561.844V156.848ZM653.983 206V116.4H710.303V131.76H670.879V153.392H707.231V168.752H670.879V206H653.983ZM750.518 206V116.4H767.414V190.64H808.374V206H750.518ZM841.909 206L865.461 116.4H894.901L918.453 206H901.045L896.181 186.288H864.181L859.317 206H841.909ZM868.149 170.672H892.213L881.333 127.024H879.029L868.149 170.672ZM969.824 206V131.76H943.712V116.4H1012.83V131.76H986.72V206H969.824Z" fill="url(#paint0_linear_1_2)"/>
<line x1="112" y1="241" x2="1016" y2="241" stroke="#D0D0D0" stroke-width="4"/>
<defs>
<linearGradient id="paint0_linear_1_2" x1="564" y1="243" x2="564" y2="80" gradientUnits="userSpaceOnUse">
<stop stop-color="#616161"/>
<stop offset="1" stop-color="white"/>
</linearGradient>
</defs>
</svg>
